<svg width="1200" height="103" viewBox="0 0 1200 103" fill="none" xmlns="http://www.w3.org/2000/svg">
<path d="M912.511 62.1279L911.148 60.813" stroke="#FEC671" stroke-width="2.5" stroke-miterlimit="10" stroke-linecap="round" stroke-dasharray="8 8"/>
<path d="M905.937 55.7884L853.815 5.55249" stroke="#FEC671" stroke-width="2.5" stroke-miterlimit="10" stroke-linecap="round" stroke-dasharray="8 8"/>
<path d="M851.211 3.03898L849.849 1.72662" stroke="#FEC671" stroke-width="2.5" stroke-miterlimit="10" stroke-linecap="round" stroke-dasharray="8 8"/>
<path d="M862.59 64.5152L849.848 1.72656" stroke="#FEC671" stroke-width="2.5" stroke-miterlimit="10" stroke-linecap="round" stroke-linejoin="bevel"/>
<path d="M849.849 1.72662L851.62 2.39032" stroke="#FEC671" stroke-width="2.5" stroke-miterlimit="10" stroke-linecap="round" stroke-dasharray="8 8"/>
<path d="M858.944 5.14368L987.131 53.285" stroke="#FEC671" stroke-width="2.5" stroke-miterlimit="10" stroke-linecap="round" stroke-dasharray="8 8"/>
<path d="M990.795 54.6603L992.567 55.3266" stroke="#FEC671" stroke-width="2.5" stroke-miterlimit="10" stroke-linecap="round" stroke-dasharray="8 8"/>
<path d="M862.707 64.5153C861.738 65.131 861.282 66.2491 861.579 67.256C861.89 68.3008 862.947 68.9897 864.136 68.9165C865.466 68.6036 866.788 69.2421 867.225 70.3651C867.694 71.574 867.018 73.0276 865.658 73.603" stroke="#FEC671" stroke-width="2.5" stroke-miterlimit="10" stroke-linecap="round" stroke-linejoin="bevel"/>
<path d="M865.662 73.6005C864.693 74.2163 864.236 75.3344 864.534 76.3413C864.844 77.3861 865.902 78.075 867.09 78.0018C868.42 77.6888 869.743 78.3274 870.179 79.4504C870.649 80.6592 869.972 82.1154 868.612 82.6883" stroke="#FEC671" stroke-width="2.5" stroke-miterlimit="10" stroke-linecap="round" stroke-linejoin="bevel"/>
<path d="M868.616 82.6882C867.647 83.304 867.19 84.422 867.488 85.4289C867.798 86.4737 868.855 87.1627 870.044 87.0895C871.374 86.7765 872.696 87.415 873.133 88.538C873.602 89.7468 872.926 91.2005 871.566 91.7759" stroke="#FEC671" stroke-width="2.5" stroke-miterlimit="10" stroke-linecap="round" stroke-linejoin="bevel"/>
<path d="M871.568 91.7759C870.599 92.3917 870.142 93.5098 870.44 94.5167C870.75 95.5615 871.808 96.2504 872.996 96.1772C874.326 95.8643 875.649 96.5028 876.085 97.6258C876.555 98.8347 875.878 100.288 874.518 100.864" stroke="#FEC671" stroke-width="2.5" stroke-miterlimit="10" stroke-linecap="round" stroke-linejoin="bevel"/>
<rect x="1198.99" y="2" width="0.252366" height="0.252366" fill="#C4C4C4"/>
<rect y="2" width="0.252366" height="0.252366" fill="#C4C4C4"/>
</svg>
