<svg width="1200" height="48" viewBox="0 0 1200 48" fill="none" xmlns="http://www.w3.org/2000/svg">
<path d="M671.824 27.9149C671.367 28.4423 671.297 29.1716 671.645 29.7041C672.006 30.2568 672.743 30.4764 673.421 30.2266C674.141 29.8127 675.022 29.954 675.471 30.5319C675.955 31.1527 675.814 32.1167 675.122 32.6896" stroke="#FEC671" stroke-width="1.7" stroke-miterlimit="10" stroke-linecap="round" stroke-linejoin="bevel"/>
<path d="M675.123 32.6921C674.666 33.2196 674.595 33.9489 674.944 34.4814C675.305 35.0341 676.041 35.2536 676.72 35.0037C677.44 34.5898 678.32 34.7312 678.77 35.3091C679.254 35.9299 679.113 36.894 678.421 37.4669" stroke="#FEC671" stroke-width="1.7" stroke-miterlimit="10" stroke-linecap="round" stroke-linejoin="bevel"/>
<path d="M678.421 37.467C677.964 37.9945 677.893 38.7238 678.242 39.2563C678.602 39.809 679.339 40.0286 680.018 39.7788C680.737 39.3649 681.618 39.5062 682.067 40.0841C682.552 40.7049 682.411 41.6689 681.719 42.2418" stroke="#FEC671" stroke-width="1.7" stroke-miterlimit="10" stroke-linecap="round" stroke-linejoin="bevel"/>
<path d="M681.72 42.2417C681.263 42.7691 681.192 43.4984 681.54 44.0309C681.901 44.5836 682.638 44.8033 683.317 44.5534C684.036 44.1395 684.917 44.2808 685.366 44.8588C685.851 45.4796 685.709 46.4436 685.018 47.0164" stroke="#FEC671" stroke-width="1.7" stroke-miterlimit="10" stroke-linecap="round" stroke-linejoin="bevel"/>
<path d="M649.151 46.075L657.575 1.69897" stroke="#FEC671" stroke-width="2.5" stroke-miterlimit="10" stroke-linecap="round" stroke-linejoin="round"/>
<path d="M657.575 1.69897L671.909 27.9147" stroke="#FEC671" stroke-width="2.5" stroke-miterlimit="10" stroke-linecap="round" stroke-linejoin="round"/>
<rect x="1198.99" y="2" width="0.252366" height="0.252366" fill="#C4C4C4"/>
<rect y="2" width="0.252366" height="0.252366" fill="#C4C4C4"/>
</svg>
