<svg width="1200" height="32" viewBox="0 0 1200 32" fill="none" xmlns="http://www.w3.org/2000/svg">
<path d="M870.88 11.7834C870.282 11.4225 869.55 11.478 869.085 11.9121C868.601 12.3638 868.512 13.1234 868.873 13.7518C869.403 14.3903 869.413 15.2837 868.921 15.8237C868.391 16.4067 867.417 16.432 866.736 15.849" stroke="#FEC671" stroke-width="1.7" stroke-miterlimit="10" stroke-linecap="round" stroke-linejoin="bevel"/>
<path d="M866.739 15.8491C866.14 15.4882 865.409 15.5438 864.944 15.9779C864.46 16.4296 864.371 17.1892 864.732 17.8176C865.262 18.4561 865.272 19.3495 864.78 19.8896C864.25 20.4725 863.276 20.4977 862.595 19.9147" stroke="#FEC671" stroke-width="1.7" stroke-miterlimit="10" stroke-linecap="round" stroke-linejoin="bevel"/>
<path d="M862.594 19.9147C861.996 19.5538 861.264 19.6094 860.8 20.0434C860.315 20.4952 860.227 21.2548 860.588 21.8832C861.118 22.5217 861.128 23.415 860.636 23.9551C860.106 24.5381 859.132 24.5633 858.45 23.9804" stroke="#FEC671" stroke-width="1.7" stroke-miterlimit="10" stroke-linecap="round" stroke-linejoin="bevel"/>
<path d="M858.453 23.9778C857.855 23.6169 857.123 23.6725 856.659 24.1065C856.174 24.5583 856.086 25.3179 856.447 25.9463C856.977 26.5848 856.987 27.4782 856.495 28.0182C855.965 28.6012 854.99 28.6264 854.309 28.0435" stroke="#FEC671" stroke-width="1.7" stroke-miterlimit="10" stroke-linecap="round" stroke-linejoin="bevel"/>
<path d="M871.127 11.902C871.771 11.637 872.488 11.7986 872.881 12.2983C873.293 12.8182 873.265 13.5829 872.813 14.1482C872.192 14.7008 872.049 15.579 872.452 16.1898C872.889 16.8459 873.848 17.0175 874.608 16.543" stroke="#FEC671" stroke-width="1.7" stroke-miterlimit="10" stroke-linecap="round" stroke-linejoin="bevel"/>
<path d="M874.61 16.5456C875.254 16.2806 875.971 16.4421 876.364 16.9418C876.776 17.4616 876.748 18.2263 876.296 18.7916C875.675 19.3443 875.531 20.2225 875.935 20.8332C876.372 21.4894 877.331 21.661 878.09 21.1865" stroke="#FEC671" stroke-width="1.7" stroke-miterlimit="10" stroke-linecap="round" stroke-linejoin="bevel"/>
<path d="M878.093 21.1865C878.737 20.9215 879.454 21.0831 879.847 21.5828C880.259 22.1027 880.231 22.8673 879.779 23.4326C879.158 23.9853 879.014 24.8635 879.418 25.4742C879.855 26.1304 880.814 26.302 881.573 25.8275" stroke="#FEC671" stroke-width="1.7" stroke-miterlimit="10" stroke-linecap="round" stroke-linejoin="bevel"/>
<path d="M881.575 25.8301C882.219 25.5651 882.935 25.7266 883.329 26.2262C883.74 26.7461 883.713 27.5108 883.261 28.0761C882.64 28.6288 882.496 29.507 882.9 30.1177C883.337 30.7739 884.296 30.9454 885.055 30.471" stroke="#FEC671" stroke-width="1.7" stroke-miterlimit="10" stroke-linecap="round" stroke-linejoin="bevel"/>
<path d="M906.474 2.81683C905.808 3.02377 905.364 3.60678 905.379 4.24526C905.394 4.90646 905.904 5.47939 906.615 5.62576C907.446 5.65352 908.119 6.23902 908.198 6.96584C908.281 7.74817 907.653 8.49519 906.764 8.61632" stroke="#FEC671" stroke-width="1.7" stroke-miterlimit="10" stroke-linecap="round" stroke-linejoin="bevel"/>
<path d="M906.764 8.61371C906.098 8.82065 905.654 9.40365 905.669 10.0421C905.684 10.7033 906.194 11.2761 906.905 11.4225C907.736 11.4503 908.41 12.0358 908.488 12.7626C908.571 13.5449 907.943 14.2919 907.054 14.4131" stroke="#FEC671" stroke-width="1.7" stroke-miterlimit="10" stroke-linecap="round" stroke-linejoin="bevel"/>
<path d="M907.052 14.4105C906.385 14.6175 905.941 15.2003 905.956 15.8388C905.972 16.5 906.481 17.073 907.193 17.2193C908.023 17.2471 908.697 17.8326 908.775 18.5594C908.859 19.3417 908.23 20.0888 907.342 20.2099" stroke="#FEC671" stroke-width="1.7" stroke-miterlimit="10" stroke-linecap="round" stroke-linejoin="bevel"/>
<path d="M907.34 20.2073C906.674 20.4143 906.229 20.9973 906.245 21.6358C906.26 22.297 906.769 22.8698 907.481 23.0161C908.311 23.0439 908.985 23.6294 909.063 24.3562C909.147 25.1386 908.518 25.8856 907.63 26.0067" stroke="#FEC671" stroke-width="1.7" stroke-miterlimit="10" stroke-linecap="round" stroke-linejoin="bevel"/>
<path d="M906.726 2.71076C906.956 2.05208 907.551 1.62561 908.187 1.66346C908.848 1.70132 909.404 2.22872 909.525 2.94291C909.525 3.7732 910.088 4.46479 910.812 4.56826C911.592 4.67678 912.359 4.07363 912.508 3.19035" stroke="#FEC671" stroke-width="1.7" stroke-miterlimit="10" stroke-linecap="round" stroke-linejoin="bevel"/>
<path d="M912.51 3.19037C912.74 2.5317 913.338 2.1051 913.971 2.14295C914.633 2.18081 915.188 2.70833 915.309 3.42253C915.309 4.25281 915.872 4.94428 916.596 5.04775C917.376 5.15627 918.143 4.55312 918.292 3.66984" stroke="#FEC671" stroke-width="1.7" stroke-miterlimit="10" stroke-linecap="round" stroke-linejoin="bevel"/>
<path d="M918.294 3.6698C918.524 3.01113 919.122 2.58465 919.755 2.62251C920.416 2.66036 920.972 3.18776 921.093 3.90196C921.093 4.73224 921.655 5.42371 922.38 5.52718C923.16 5.6357 923.927 5.03255 924.076 4.14927" stroke="#FEC671" stroke-width="1.7" stroke-miterlimit="10" stroke-linecap="round" stroke-linejoin="bevel"/>
<path d="M924.078 4.14673C924.308 3.48806 924.903 3.06158 925.539 3.09944C926.201 3.13729 926.756 3.66482 926.877 4.37901C926.877 5.2093 927.44 5.90076 928.164 6.00423C928.944 6.11275 929.711 5.50961 929.86 4.62633" stroke="#FEC671" stroke-width="1.7" stroke-miterlimit="10" stroke-linecap="round" stroke-linejoin="bevel"/>
<rect x="1198.99" y="2" width="0.252366" height="0.252366" fill="#C4C4C4"/>
<rect y="2" width="0.252366" height="0.252366" fill="#C4C4C4"/>
</svg>
