<svg width="1200" height="71" viewBox="0 0 1200 71" fill="none" xmlns="http://www.w3.org/2000/svg">
<path d="M649.058 8.22144C648.602 8.74888 648.531 9.47818 648.879 10.0107C649.24 10.5634 649.977 10.783 650.656 10.5331C651.375 10.1193 652.256 10.2606 652.705 10.8385C653.19 11.4593 653.048 12.4233 652.357 12.9962" stroke="#FEC671" stroke-width="1.7" stroke-miterlimit="10" stroke-linecap="round" stroke-linejoin="bevel"/>
<path d="M652.357 12.9962C651.9 13.5236 651.83 14.2529 652.178 14.7854C652.539 15.3381 653.276 15.5577 653.955 15.3079C654.674 14.894 655.555 15.0353 656.004 15.6132C656.488 16.234 656.347 17.198 655.656 17.7709" stroke="#FEC671" stroke-width="1.7" stroke-miterlimit="10" stroke-linecap="round" stroke-linejoin="bevel"/>
<path d="M655.655 17.7736C655.198 18.3011 655.128 19.0304 655.476 19.5629C655.837 20.1155 656.574 20.3351 657.253 20.0852C657.972 19.6713 658.853 19.8128 659.302 20.3907C659.786 21.0115 659.645 21.9755 658.954 22.5484" stroke="#FEC671" stroke-width="1.7" stroke-miterlimit="10" stroke-linecap="round" stroke-linejoin="bevel"/>
<path d="M658.954 22.5482C658.497 23.0757 658.426 23.805 658.775 24.3375C659.136 24.8901 659.873 25.1098 660.551 24.8599C661.271 24.446 662.151 24.5874 662.601 25.1653C663.085 25.7861 662.944 26.7501 662.252 27.323" stroke="#FEC671" stroke-width="1.7" stroke-miterlimit="10" stroke-linecap="round" stroke-linejoin="bevel"/>
<path d="M662.252 27.323C661.795 27.8504 661.724 28.5797 662.073 29.1122C662.433 29.6649 663.17 29.8846 663.849 29.6347C664.568 29.2208 665.449 29.3621 665.898 29.9401C666.383 30.5609 666.242 31.5249 665.55 32.0977" stroke="#FEC671" stroke-width="1.7" stroke-miterlimit="10" stroke-linecap="round" stroke-linejoin="bevel"/>
<path d="M665.551 32.0978C665.094 32.6252 665.023 33.3546 665.371 33.8871C665.732 34.4398 666.469 34.6593 667.148 34.4095C667.867 33.9956 668.748 34.1369 669.197 34.7148C669.682 35.3357 669.541 36.2997 668.849 36.8725" stroke="#FEC671" stroke-width="1.7" stroke-miterlimit="10" stroke-linecap="round" stroke-linejoin="bevel"/>
<path d="M668.848 36.8724C668.392 37.3998 668.321 38.1292 668.669 38.6617C669.03 39.2144 669.767 39.4339 670.446 39.1841C671.165 38.7702 672.046 38.9115 672.495 39.4894C672.98 40.1103 672.838 41.0744 672.147 41.6472" stroke="#FEC671" stroke-width="1.7" stroke-miterlimit="10" stroke-linecap="round" stroke-linejoin="bevel"/>
<path d="M672.144 41.6497C671.688 42.1772 671.617 42.9065 671.965 43.439C672.326 43.9916 673.063 44.2113 673.742 43.9614C674.461 43.5476 675.342 43.6889 675.791 44.2668C676.276 44.8876 676.134 45.8516 675.443 46.4245" stroke="#FEC671" stroke-width="1.7" stroke-miterlimit="10" stroke-linecap="round" stroke-linejoin="bevel"/>
<path d="M556.786 15.386L563.653 1.78345L571.229 15.386" stroke="#FEC671" stroke-width="2.5" stroke-miterlimit="10" stroke-linecap="round" stroke-linejoin="round"/>
<path d="M610.132 68.8093L649.151 8.07489" stroke="#FEC671" stroke-width="2.5" stroke-miterlimit="10" stroke-linecap="round" stroke-linejoin="round"/>
<rect x="1198.99" y="2" width="0.252366" height="0.252366" fill="#C4C4C4"/>
<rect x="0.000488281" y="2" width="0.252366" height="0.252366" fill="#C4C4C4"/>
</svg>
