<svg width="1200" height="73" viewBox="0 0 1200 73" fill="none" xmlns="http://www.w3.org/2000/svg">
<path d="M632.142 38.7952L661.027 1.73022L654.372 48.1049" stroke="#FEC671" stroke-width="2.5" stroke-miterlimit="10" stroke-linecap="round" stroke-linejoin="round"/>
<path d="M654.287 48.4484C653.641 48.7083 653.245 49.3265 653.31 49.96C653.381 50.6186 653.936 51.1462 654.655 51.2345C655.486 51.1941 656.205 51.7215 656.341 52.4407C656.488 53.213 655.925 54.0079 655.049 54.2023" stroke="#FEC671" stroke-width="1.7" stroke-miterlimit="10" stroke-linecap="round" stroke-linejoin="bevel"/>
<path d="M655.049 54.1999C654.403 54.4598 654.007 55.0781 654.072 55.7115C654.143 56.3702 654.698 56.8976 655.418 56.9859C656.248 56.9455 656.967 57.473 657.103 58.1923C657.25 58.9645 656.687 59.7595 655.811 59.9538" stroke="#FEC671" stroke-width="1.7" stroke-miterlimit="10" stroke-linecap="round" stroke-linejoin="bevel"/>
<path d="M655.811 59.9537C655.165 60.2137 654.769 60.8319 654.834 61.4653C654.905 62.124 655.46 62.6515 656.179 62.7399C657.01 62.6995 657.729 63.2269 657.865 63.9461C658.012 64.7184 657.449 65.5133 656.573 65.7076" stroke="#FEC671" stroke-width="1.7" stroke-miterlimit="10" stroke-linecap="round" stroke-linejoin="bevel"/>
<path d="M656.574 65.7077C655.927 65.9676 655.531 66.586 655.597 67.2194C655.668 67.8781 656.223 68.4055 656.942 68.4938C657.772 68.4535 658.492 68.981 658.628 69.7002C658.774 70.4725 658.211 71.2674 657.336 71.4617" stroke="#FEC671" stroke-width="1.7" stroke-miterlimit="10" stroke-linecap="round" stroke-linejoin="bevel"/>
<path d="M631.842 38.899C631.302 38.4573 630.57 38.4043 630.047 38.7677C629.505 39.1438 629.305 39.8858 629.573 40.5596C630.007 41.2687 629.888 42.152 629.323 42.6163C628.715 43.116 627.746 43.0025 627.158 42.3261" stroke="#FEC671" stroke-width="1.7" stroke-miterlimit="10" stroke-linecap="round" stroke-linejoin="bevel"/>
<path d="M627.158 42.3262C626.617 41.8845 625.886 41.8315 625.363 42.1949C624.821 42.571 624.621 43.3129 624.889 43.9868C625.323 44.6959 625.204 45.5792 624.639 46.0435C624.031 46.5432 623.062 46.4297 622.474 45.7533" stroke="#FEC671" stroke-width="1.7" stroke-miterlimit="10" stroke-linecap="round" stroke-linejoin="bevel"/>
<path d="M622.473 45.7533C621.933 45.3117 621.202 45.2587 620.679 45.6221C620.137 45.9981 619.937 46.7401 620.205 47.4139C620.639 48.123 620.52 49.0063 619.955 49.4706C619.347 49.9703 618.378 49.8568 617.79 49.1804" stroke="#FEC671" stroke-width="1.7" stroke-miterlimit="10" stroke-linecap="round" stroke-linejoin="bevel"/>
<path d="M617.789 49.1804C617.249 48.7388 616.517 48.6858 615.995 49.0492C615.452 49.4252 615.253 50.1672 615.521 50.841C615.955 51.5502 615.836 52.4334 615.271 52.8978C614.663 53.3974 613.693 53.2839 613.105 52.6076" stroke="#FEC671" stroke-width="1.7" stroke-miterlimit="10" stroke-linecap="round" stroke-linejoin="bevel"/>
<rect x="1198.99" y="2" width="0.252366" height="0.252366" fill="#C4C4C4"/>
<rect x="0.000488281" y="2" width="0.252366" height="0.252366" fill="#C4C4C4"/>
</svg>
