<svg width="1200" height="165" viewBox="0 0 1200 165" fill="none" xmlns="http://www.w3.org/2000/svg">
<path d="M374.195 162.892L373.261 161.244" stroke="#FEC671" stroke-width="2.5" stroke-miterlimit="10" stroke-linecap="round" stroke-dasharray="8 8"/>
<path d="M369.536 154.67L293.16 19.866" stroke="#FEC671" stroke-width="2.5" stroke-miterlimit="10" stroke-linecap="round" stroke-dasharray="8 8"/>
<path d="M291.297 16.5777L290.366 14.9297" stroke="#FEC671" stroke-width="2.5" stroke-miterlimit="10" stroke-linecap="round" stroke-dasharray="8 8"/>
<path d="M206.88 72.4466L290.388 14.6598" stroke="#FEC671" stroke-width="2.5" stroke-miterlimit="10" stroke-linecap="round"/>
<path d="M610.133 1.65783C609.593 1.21619 608.861 1.16319 608.339 1.5266C607.796 1.90263 607.597 2.64461 607.864 3.31842C608.298 4.02757 608.18 4.91083 607.614 5.37518C607.006 5.87487 606.037 5.76133 605.449 5.08498" stroke="#FEC671" stroke-width="1.7" stroke-miterlimit="10" stroke-linecap="round" stroke-linejoin="bevel"/>
<path d="M605.449 5.08496C604.909 4.64332 604.177 4.59032 603.655 4.95372C603.112 5.32975 602.913 6.07173 603.18 6.74555C603.614 7.4547 603.496 8.33795 602.93 8.80231C602.322 9.30199 601.353 9.18845 600.765 8.51211" stroke="#FEC671" stroke-width="1.7" stroke-miterlimit="10" stroke-linecap="round" stroke-linejoin="bevel"/>
<path d="M600.765 8.51214C600.225 8.0705 599.493 8.0175 598.971 8.38091C598.428 8.75693 598.229 9.49891 598.496 10.1727C598.93 10.8819 598.812 11.7651 598.246 12.2295C597.638 12.7292 596.669 12.6156 596.081 11.9393" stroke="#FEC671" stroke-width="1.7" stroke-miterlimit="10" stroke-linecap="round" stroke-linejoin="bevel"/>
<path d="M596.081 11.9393C595.541 11.4976 594.809 11.4446 594.287 11.808C593.744 12.1841 593.545 12.9259 593.812 13.5997C594.246 14.3089 594.128 15.1923 593.562 15.6566C592.954 16.1563 591.985 16.0426 591.397 15.3663" stroke="#FEC671" stroke-width="1.7" stroke-miterlimit="10" stroke-linecap="round" stroke-linejoin="bevel"/>
<path d="M651.833 75.3386L610.132 1.80927" stroke="#FEC671" stroke-width="2.5" stroke-miterlimit="10" stroke-linecap="round" stroke-linejoin="round"/>
<rect x="1198.99" y="1" width="0.252366" height="0.252366" fill="#C4C4C4"/>
<rect y="1" width="0.252366" height="0.252366" fill="#C4C4C4"/>
</svg>
