<svg width="1200" height="77" viewBox="0 0 1200 77" fill="none" xmlns="http://www.w3.org/2000/svg">
<path d="M682.544 2.18328C683.418 1.43627 684.621 1.3278 685.495 1.90824C686.401 2.51139 686.751 3.72278 686.332 4.84076C685.643 6.02183 685.868 7.47285 686.812 8.21985C687.829 9.02238 689.419 8.8029 690.368 7.66977" stroke="#FEC671" stroke-width="2" stroke-miterlimit="10" stroke-linecap="round" stroke-linejoin="bevel"/>
<path d="M690.368 7.6698C691.241 6.9228 692.445 6.8142 693.318 7.39464C694.224 7.9978 694.575 9.20918 694.156 10.3272C693.467 11.5082 693.692 12.9594 694.636 13.7064C695.653 14.5089 697.243 14.2893 698.192 13.1562" stroke="#FEC671" stroke-width="2" stroke-miterlimit="10" stroke-linecap="round" stroke-linejoin="bevel"/>
<path d="M698.194 13.1562C699.067 12.4092 700.271 12.3008 701.144 12.8812C702.05 13.4844 702.401 14.6957 701.982 15.8137C701.293 16.9948 701.517 18.4458 702.461 19.1928C703.478 19.9953 705.068 19.7759 706.017 18.6427" stroke="#FEC671" stroke-width="2" stroke-miterlimit="10" stroke-linecap="round" stroke-linejoin="bevel"/>
<path d="M706.017 18.64C706.89 17.893 708.094 17.7845 708.967 18.365C709.873 18.9681 710.224 20.1795 709.805 21.2975C709.116 22.4786 709.34 23.9296 710.284 24.6766C711.301 25.4791 712.891 25.2596 713.84 24.1265" stroke="#FEC671" stroke-width="2" stroke-miterlimit="10" stroke-linecap="round" stroke-linejoin="bevel"/>
<path d="M681.983 2.13527C680.835 2.11003 679.833 2.78638 679.523 3.78575C679.2 4.8255 679.697 5.98641 680.727 6.58704C682.009 7.06653 682.751 8.33084 682.491 9.50687C682.211 10.7737 680.84 11.6066 679.389 11.329" stroke="#FEC671" stroke-width="2" stroke-miterlimit="10" stroke-linecap="round" stroke-linejoin="bevel"/>
<path d="M679.389 11.3341C678.241 11.3089 677.239 11.9852 676.929 12.9846C676.606 14.0243 677.103 15.1851 678.132 15.7858C679.414 16.2653 680.156 17.5297 679.897 18.7057C679.616 19.9726 678.246 20.8053 676.795 20.5277" stroke="#FEC671" stroke-width="2" stroke-miterlimit="10" stroke-linecap="round" stroke-linejoin="bevel"/>
<path d="M676.797 20.5302C675.649 20.505 674.647 21.1813 674.337 22.1807C674.014 23.2205 674.511 24.3814 675.541 24.982C676.823 25.4615 677.565 26.7258 677.305 27.9018C677.025 29.1687 675.654 30.0014 674.203 29.7238" stroke="#FEC671" stroke-width="2" stroke-miterlimit="10" stroke-linecap="round" stroke-linejoin="bevel"/>
<path d="M674.203 29.7265C673.055 29.7012 672.053 30.3776 671.743 31.3769C671.42 32.4167 671.917 33.5776 672.946 34.1782C674.228 34.6577 674.97 35.922 674.71 37.0981C674.43 38.3649 673.06 39.1978 671.609 38.9202" stroke="#FEC671" stroke-width="2" stroke-miterlimit="10" stroke-linecap="round" stroke-linejoin="bevel"/>
<path d="M671.398 38.89C670.249 38.8647 669.247 39.5411 668.937 40.5404C668.614 41.5802 669.111 42.7411 670.141 43.3417C671.423 43.8212 672.165 45.0855 671.905 46.2616C671.625 47.5284 670.254 48.3612 668.803 48.0836" stroke="#FEC671" stroke-width="2" stroke-miterlimit="10" stroke-linecap="round" stroke-linejoin="bevel"/>
<path d="M668.806 48.0861C667.657 48.0609 666.656 48.7372 666.345 49.7366C666.022 50.7764 666.519 51.9373 667.549 52.5379C668.831 53.0174 669.573 54.2817 669.313 55.4577C669.033 56.7246 667.663 57.5575 666.211 57.2799" stroke="#FEC671" stroke-width="2" stroke-miterlimit="10" stroke-linecap="round" stroke-linejoin="bevel"/>
<path d="M666.212 57.2824C665.064 57.2571 664.062 57.9335 663.751 58.9328C663.428 59.9726 663.926 61.1335 664.955 61.7341C666.237 62.2136 666.979 63.4779 666.719 64.654C666.439 65.9208 665.069 66.7537 663.618 66.4761" stroke="#FEC671" stroke-width="2" stroke-miterlimit="10" stroke-linecap="round" stroke-linejoin="bevel"/>
<path d="M663.62 66.4812C662.471 66.4559 661.47 67.1323 661.159 68.1316C660.836 69.1714 661.333 70.3322 662.363 70.9328C663.645 71.4123 664.387 72.6767 664.127 73.8528C663.847 75.1196 662.476 75.9524 661.025 75.6748" stroke="#FEC671" stroke-width="2" stroke-miterlimit="10" stroke-linecap="round" stroke-linejoin="bevel"/>
<rect x="1198.99" y="2" width="0.252366" height="0.252366" fill="#C4C4C4"/>
<rect x="0.000488281" y="2" width="0.252366" height="0.252366" fill="#C4C4C4"/>
</svg>
