<svg width="1200" height="198" viewBox="0 0 1200 198" fill="none" xmlns="http://www.w3.org/2000/svg">
<path d="M443.516 172.383L477.84 10.1475" stroke="#FEC671" stroke-width="2.5" stroke-miterlimit="10" stroke-linecap="round" stroke-dasharray="8 8"/>
<path d="M472.291 11.0382C454.873 27.7019 408.662 71.9215 394.704 85.3752" stroke="#FEC671" stroke-width="2.5" stroke-miterlimit="10" stroke-linecap="round" stroke-dasharray="8 8"/>
<path d="M564.762 32.3304C565.502 32.5475 566.006 33.1834 566.001 33.8875C565.996 34.6194 565.443 35.263 564.661 35.4371C563.743 35.485 563.011 36.1438 562.94 36.9488C562.862 37.817 563.571 38.6295 564.558 38.7456" stroke="#FEC671" stroke-width="1.7" stroke-miterlimit="10" stroke-linecap="round" stroke-linejoin="bevel"/>
<path d="M564.56 38.7482C565.3 38.9627 565.805 39.6012 565.799 40.3053C565.794 41.0372 565.242 41.6807 564.459 41.8549C563.541 41.9028 562.809 42.5614 562.738 43.3665C562.66 44.2346 563.369 45.0473 564.356 45.1634" stroke="#FEC671" stroke-width="1.7" stroke-miterlimit="10" stroke-linecap="round" stroke-linejoin="bevel"/>
<path d="M564.356 45.1633C565.096 45.3803 565.6 46.0162 565.595 46.7203C565.59 47.4522 565.038 48.0958 564.255 48.2699C563.337 48.3179 562.605 48.9765 562.534 49.7815C562.456 50.6497 563.165 51.4623 564.152 51.5784" stroke="#FEC671" stroke-width="1.7" stroke-miterlimit="10" stroke-linecap="round" stroke-linejoin="bevel"/>
<path d="M564.152 51.5785C564.891 51.7955 565.396 52.4315 565.391 53.1356C565.386 53.8674 564.833 54.511 564.051 54.6851C563.132 54.7331 562.4 55.3918 562.33 56.1969C562.251 57.065 562.961 57.8775 563.947 57.9936" stroke="#FEC671" stroke-width="1.7" stroke-miterlimit="10" stroke-linecap="round" stroke-linejoin="bevel"/>
<path d="M564.855 32.3734C564.636 31.634 563.997 31.1318 563.293 31.1419C562.561 31.1494 561.92 31.7046 561.748 32.4895C561.706 33.4081 561.049 34.1425 560.244 34.2182C559.376 34.299 558.561 33.5948 558.44 32.6106" stroke="#FEC671" stroke-width="1.7" stroke-miterlimit="10" stroke-linecap="round" stroke-linejoin="bevel"/>
<path d="M558.442 32.6105C558.222 31.871 557.584 31.3688 556.88 31.3789C556.148 31.3865 555.507 31.9418 555.335 32.7267C555.292 33.6453 554.636 34.3796 553.831 34.4553C552.963 34.536 552.148 33.832 552.027 32.8478" stroke="#FEC671" stroke-width="1.7" stroke-miterlimit="10" stroke-linecap="round" stroke-linejoin="bevel"/>
<path d="M552.027 32.8453C551.808 32.1058 551.169 31.6036 550.465 31.6137C549.733 31.6213 549.092 32.1765 548.921 32.9613C548.878 33.8799 548.222 34.6144 547.417 34.6901C546.549 34.7708 545.733 34.0667 545.612 33.0825" stroke="#FEC671" stroke-width="1.7" stroke-miterlimit="10" stroke-linecap="round" stroke-linejoin="bevel"/>
<path d="M545.612 33.0799C545.392 32.3405 544.754 31.8382 544.05 31.8483C543.318 31.8559 542.677 32.4112 542.505 33.196C542.462 34.1146 541.806 34.849 541.001 34.9247C540.133 35.0055 539.318 34.3014 539.197 33.3171" stroke="#FEC671" stroke-width="1.7" stroke-miterlimit="10" stroke-linecap="round" stroke-linejoin="bevel"/>
<path d="M479.014 4.60797L564.47 196.737" stroke="#FEC671" stroke-width="2.5" stroke-miterlimit="10" stroke-linecap="round"/>
<path d="M871.13 50.7734L874.554 3.90649L906.567 41.1204" stroke="#FEC671" stroke-width="2.5" stroke-miterlimit="10" stroke-linecap="round" stroke-linejoin="round"/>
<path d="M564.871 31.7576L613.012 1.93555L604.906 29.7211" stroke="#FEC671" stroke-width="2.5" stroke-miterlimit="10" stroke-linecap="round" stroke-linejoin="round"/>
<path d="M441.562 181.61L441.956 179.758" stroke="#FEC671" stroke-width="2.5" stroke-miterlimit="10" stroke-linecap="round"/>
<path d="M478.62 6.46036L479.011 4.60791C479.011 4.60791 478.532 5.06726 477.644 5.91521" stroke="#FEC671" stroke-width="2.5" stroke-miterlimit="10" stroke-linecap="round"/>
<path d="M392.039 87.9493C391.279 88.6862 390.815 89.143 390.688 89.2743" stroke="#FEC671" stroke-width="2.5" stroke-miterlimit="10" stroke-linecap="round"/>
<rect x="1198.99" y="2" width="0.252366" height="0.252366" fill="#C4C4C4"/>
<rect y="2" width="0.252366" height="0.252366" fill="#C4C4C4"/>
</svg>
